/* XPM */
static char *result[] = {
/* columns rows colors chars-per-pixel */
"32 44 46 1 ",
"  c #000400",
". c #223E01",
"X c #2D490B",
"o c #3E5526",
"O c #7C553C",
"+ c #7C563C",
"@ c #7D563D",
"# c #4F692E",
"$ c #4F623A",
"% c #536D32",
"& c #754D4D",
"* c #58604E",
"= c #596250",
"- c #5B6452",
"; c #8B5E5E",
": c #9A6E77",
"> c #819566",
", c #A58C68",
"< c #A78D6A",
"1 c #A88D6A",
"2 c #A88E6B",
"3 c #A88E6C",
"4 c #A18B71",
"5 c #A88E77",
"6 c #AA927C",
"7 c #91A37A",
"8 c #93A47C",
"9 c #868E86",
"0 c #838989",
"q c #AC8F92",
"w c #BDAA96",
"e c #ABB798",
"r c #B3BEA4",
"t c #A6ADB0",
"y c #C4AB9B",
"u c #C0AC9A",
"i c #C4AF9F",
"p c #C9ABAE",
"a c #D0B6BB",
"s c #C4CBB9",
"d c #C8CFBE",
"f c #DCCACD",
"g c #D5D8CF",
"h c #CFD6DE",
"j c #E0E1DD",
"k c #6A564A",
/* pixels */
"kkkkkkkkkkkkkkkkkkkkkkkkkkkkkkkk",
"kkkkkkkkkkkkkkkkkkkkkkkkkkkkkkkk",
"kkkkkkkkkkkkk;;;;;;;kkkkkkkkkkkk",
"kkkkkkkkkkk;;:qqqqq:;;kkkkkkkkkk",
"kkkkkkkkkk;:qppq:qppq:;kkkkkkkkk",
"kkkkkkkkk;:ppq:::::qpp:;kkkkkkkk",
"kkkkkkkk;:aappq;;;qppaa:;kkkkkkk",
"kkkkkkkk;afqffpq;qpffqfa;kkkkkkk",
"kkkkkkk;:aqfafp;&;pfafqa:;kkkkkk",
"kkkkkkk;:pqaqaq&s&qaqaqp:;kkkkkk",
"kkkkkkk;q;qp:a:&s&:a:pq;q;kkkkkk",
"kkkkkk;:q;qq&q;sss;q&qq;q:;kkkkk",
"kkkkkk;:&qp:&;&sss&;&:pq&:;kkkkk",
"kkkkkk;;&qp;   rrr   ;pq&;;kkkkk",
"kkkkk;:&;qq&XX#r>r#XX&qq;&:;kkkk",
"kkkkk;;&:q;>>>r> >r>>8;q:&;;kkkk",
"kkkk;;&;:;&%8egrgrg>e8&;:;&;;kkk",
"kkkk&&k:;&&.%e $ $ e8%&&;:k&&kkk",
"kkkkkkk&&&..%o     o%..&&&kkkkkk",
"kkkkkkkkk.8e@.7rrr7.+8.kkkkkkkkk",
"kkkkkkkk.8de2e88%88@eee.kkkkkkkk",
"kkkkkkkk.je82@jde@@3edd.kkkkkkkk",
"kkkkkkk.8d8%ui633iy68dje.kkkkkkk",
"kkkkkkk.ee8=wy555yy2-edj.kkkkkkk",
"kkkkkk.8e8.*111@@11@=%dj.kkkkkkk",
"kkkkkk.ee%.*@1@@@@1@=.ed8.kkkkkk",
"kkkkkk.8%.k*0t51115t9*8de.kkkkkk",
"kkkkkkk..kkO10thhht01O.jd.kkkkkk",
"kkkkkkkkkk*,555111155O*ed.kkkkkk",
"kkkkkkkkkkO15y5y51154O.88.kkkkkk",
"kkkkkkkkkkO15y5y551<+....kkkkkkk",
"kkkkkkkkkkO@2ii3@O++%.kkkkkkkkkk",
"kkkkkkkkkkO%eed88.%%%.kkkkkkkkkk",
"kkkkkkkkkkk.8jde8.%8%.kkkkkkkkkk",
"kkkkkkkkkkk.8jje8.%%%.kkkkkkkkkk",
"kkkkkkkkkkk.8eje%.%%%.kkkkkkkkkk",
"kkkkkkkkkkk%8eee%.%%%%kkkkkkkkkk",
"kkkkkkkkkkk%8eee%.88e%kkkkkkkkkk",
"kkkkkkkkkkk%eeee8.8%8.kkkkkkkkkk",
"kkkkkkkkkkk%eddde....kkkkkkkkkkk",
"kkkkkkkkkkk%ddddd.kkkkkkkkkkkkkk",
"kkkkkkkkkkk.8dd8d.kkkkkkkkkkkkkk",
"kkkkkkkkkkkk.....kkkkkkkkkkkkkkk",
"kkkkkkkkkkkkkkkkkkkkkkkkkkkkkkkk"
};
